# xmcd
#
# Track frame offsets:
#	150
#	19306
#	33941
#	48238
#	67295
#	93379
#	111133
#	137052
#	155586
#	166372
#	185482
#	211996
#	236429
#	250600
#	264919
#	282350
#	298532
#
# Disc length: 4241 seconds
#
# Revision: 0
# Processed by: cddbd v1.5.1PL0 Copyright (c) Steve Scherf et al.
# Submitted via: dBpowerAMP V4.0
#
DISCID=f3108f11
DTITLE=Ryan Adams - Live, Rare and Unreleased
DYEAR=1900
DGENRE=Country
TTITLE0=Tilt and Whurl (Pneumonia Demo)
TTITLE1=Choked Up (Pneumonia Demo)
TTITLE2=Rescue Blues (Gold Demo)
TTITLE3=Touch Feet and Loose (Norway 28-04-01)
TTITLE4=Oh My Sweet Carolina (Live at Mountain Stage)
TTITLE5=Monday Night (From Night at the Mountains)
TTITLE6=Brown Sugar (Uncut)
TTITLE7=Lovesick Blues (Live at HOB 15-11-01)
TTITLE8=What Money Can't Buy (Pneumonia Demo)
TTITLE9=In My Time Of Need (Pneumonia Demo)
TTITLE10=The Bar Is a Beautiful Place (Sweden 24-04-01)
TTITLE11=Come Pick Me Up (Sweden 24-04-01)
TTITLE12=Mining Town (Live Acoustic Cafe)
TTITLE13=Firecracker (Live with Jools Holland)
TTITLE14=When The Stars Go Blue (Live with Jools Holland)
TTITLE15=New York New York (Live with Jools Holland)
TTITLE16=Dreams of a Working Class Clown (Norway 25-04-01)
EXTD=
EXTT0=
EXTT1=
EXTT2=
EXTT3=
EXTT4=
EXTT5=
EXTT6=
EXTT7=
EXTT8=
EXTT9=
EXTT10=
EXTT11=
EXTT12=
EXTT13=
EXTT14=
EXTT15=
EXTT16=
PLAYORDER=
